HIERARCHY
ROOT Hips
{
	OFFSET 0.000000 0.000000 0.000000
	CHANNELS 6 Xposition Yposition Zposition Zrotation Yrotation Xrotation 
	JOINT LHipJoint
	{
		OFFSET 0.000000 0.000000 0.000000
		CHANNELS 3 Zrotation Yrotation Xrotation
		JOINT LeftUpLeg
		{
			OFFSET 1.363060 -1.794630 0.839290
			CHANNELS 3 Zrotation Yrotation Xrotation
			JOINT LeftLeg
			{
				OFFSET 2.448110 -6.726130 0.000000
				CHANNELS 3 Zrotation Yrotation Xrotation
				JOINT LeftFoot
				{
					OFFSET 2.562200 -7.039590 0.000000
					CHANNELS 3 Zrotation Yrotation Xrotation
					JOINT LeftToeBase
					{
						OFFSET 0.157640 -0.433110 2.322550
						CHANNELS 3 Zrotation Yrotation Xrotation
						End Site
						{
							OFFSET 0.000000 0.000000 0.000000
						}
					}
				}
			}
		}
	}
	JOINT RHipJoint
	{
		OFFSET 0.000000 0.000000 0.000000
		CHANNELS 3 Zrotation Yrotation Xrotation
		JOINT RightUpLeg
		{
			OFFSET -1.305520 -1.794630 0.839290
			CHANNELS 3 Zrotation Yrotation Xrotation
			JOINT RightLeg
			{
				OFFSET -2.542530 -6.985550 0.000000
				CHANNELS 3 Zrotation Yrotation Xrotation
				JOINT RightFoot
				{
					OFFSET -2.568260 -7.056230 0.000000
					CHANNELS 3 Zrotation Yrotation Xrotation
					JOINT RightToeBase
					{
						OFFSET -0.164730 -0.452590 2.363150
						CHANNELS 3 Zrotation Yrotation Xrotation
						End Site
						{
							OFFSET 0.000000 0.000000 0.000000
						}
					}
				}
			}
		}
	}
	JOINT LowerBack
	{
		OFFSET 0.000000 0.000000 0.000000
		CHANNELS 3 Zrotation Yrotation Xrotation
		JOINT Spine
		{
			OFFSET 0.028270 2.035590 -0.193380
			CHANNELS 3 Zrotation Yrotation Xrotation
			JOINT Spine1
			{
				OFFSET 0.056720 2.048850 -0.042750
				CHANNELS 3 Zrotation Yrotation Xrotation
				JOINT Neck
				{
					OFFSET 0.000000 0.000000 0.000000
					CHANNELS 3 Zrotation Yrotation Xrotation
					JOINT Neck1
					{
						OFFSET -0.054170 1.746240 0.172020
						CHANNELS 3 Zrotation Yrotation Xrotation
						JOINT Head
						{
							OFFSET 0.104070 1.761360 -0.123970
							CHANNELS 3 Zrotation Yrotation Xrotation
							End Site
							{
								OFFSET 0.000000 0.000000 0.000000
							}
						}
					}
				}
				JOINT LeftShoulder
				{
					OFFSET 0.000000 0.000000 0.000000
					CHANNELS 3 Zrotation Yrotation Xrotation
					JOINT LeftArm
					{
						OFFSET 3.362410 1.200890 -0.311210
						CHANNELS 3 Zrotation Yrotation Xrotation
						JOINT LeftForeArm
						{
							OFFSET 4.983000 -0.000000 -0.000000
							CHANNELS 3 Zrotation Yrotation Xrotation
							JOINT LeftHand
							{
								OFFSET 3.483560 -0.000000 -0.000000
								CHANNELS 3 Zrotation Yrotation Xrotation
								JOINT LeftFingerBase
								{
									OFFSET 0.000000 0.000000 0.000000
									CHANNELS 3 Zrotation Yrotation Xrotation
									JOINT LeftHandIndex1
									{
										OFFSET 0.715260 -0.000000 -0.000000
										CHANNELS 3 Zrotation Yrotation Xrotation
										End Site
										{
											OFFSET 0.000000 0.000000 0.000000
										}
									}
								}
								JOINT LThumb
								{
									OFFSET 0.000000 0.000000 0.000000
									CHANNELS 3 Zrotation Yrotation Xrotation
									End Site
									{
										OFFSET 0.000000 0.000000 0.000000
									}
								}
							}
						}
					}
				}
				JOINT RightShoulder
				{
					OFFSET 0.000000 0.000000 0.000000
					CHANNELS 3 Zrotation Yrotation Xrotation
					JOINT RightArm
					{
						OFFSET -3.136600 1.374050 -0.404650
						CHANNELS 3 Zrotation Yrotation Xrotation
						JOINT RightForeArm
						{
							OFFSET -5.241900 -0.000000 -0.000000
							CHANNELS 3 Zrotation Yrotation Xrotation
							JOINT RightHand
							{
								OFFSET -3.444170 -0.000000 -0.000000
								CHANNELS 3 Zrotation Yrotation Xrotation
								JOINT RightFingerBase
								{
									OFFSET 0.000000 0.000000 0.000000
									CHANNELS 3 Zrotation Yrotation Xrotation
									JOINT RightHandIndex1
									{
										OFFSET -0.622530 -0.000000 -0.000000
										CHANNELS 3 Zrotation Yrotation Xrotation
										End Site
										{
											OFFSET 0.000000 0.000000 0.000000
										}
									}
								}
								JOINT RThumb
								{
									OFFSET 0.000000 0.000000 0.000000
									CHANNELS 3 Zrotation Yrotation Xrotation
									End Site
									{
										OFFSET 0.000000 0.000000 0.000000
									}
								}
							}
						}
					}
				}
			}
		}
	}
}
MOTION
Frames: 5
Frame Time: 0.008333
-20.017394 15.535962 -0.543380 63.432022 89.004506 91.278245 -7.286446 -0.516865 7.346756 -3.378461 -15.728493 -75.251035 -0.678762 2.013050 44.090479 1.579618 5.158625 -8.080027 0.462300 -0.000000 -31.091600 11.344516 -4.659025 0.069327 5.878035 -9.082369 7.158727 2.293669 0.527373 2.922865 0.195359 1.852065 2.166263 -0.002000 -0.000001 -83.164399 -5.531595 1.827739 -7.157293 -2.181602 2.049123 -5.040265 -5.977544 1.894440 -1.322080 8.495025 1.144253 -5.710533 -3.887297 -0.325255 0.417609 0.000000 0.000000 0.000000 -4.888117 8.241413 4.320775 -61.518637 23.039895 4.370999 -4.586604 -5.744868 -0.004027 3.444259 3.594501 0.112677 -0.104074 -0.049105 -0.000000 0.000000 0.000000 0.000000 0.000000 0.000000 0.000000 15.410814 9.147828 1.285926 68.656197 47.108308 30.614588 1.491032 56.307908 0.010435 1.487307 10.004792 0.139366 -0.020748 -0.452262 -0.000000 0.000000 0.000000 0.000000 0.000000 0.000000 0.000000 
-19.761132 15.567982 -0.549270 68.464131 88.991723 96.402526 -7.187609 -0.343727 7.349171 -3.742266 -15.945420 -74.778772 -0.595945 2.052383 44.832870 1.633514 5.507845 -7.848906 0.506000 0.000000 -30.761100 11.556964 -4.758499 0.109590 5.599438 -9.051827 6.068055 2.019239 0.143838 5.611419 0.111832 1.058789 5.094523 -0.099900 0.000000 -86.781300 -5.702368 1.786857 -7.257673 -2.242855 2.023845 -5.070395 -6.054148 1.868689 -1.378717 8.648142 1.160484 -5.687977 -3.945346 -0.329669 0.419311 0.000000 0.000000 0.000000 -4.715385 7.905768 4.326391 -61.249745 21.950894 4.105946 -4.569431 -4.883697 -0.003265 4.012165 3.289725 0.119493 -0.102033 -0.042987 -0.000000 0.000000 0.000000 0.000000 0.000000 0.000000 0.000000 15.786689 9.106113 1.302745 68.910432 46.187157 29.915970 1.490455 55.763583 0.007968 0.992368 10.080006 0.094103 -0.013308 -0.453918 -0.000000 0.000000 0.000000 0.000000 0.000000 0.000000 0.000000 
-19.507341 15.607349 -0.556850 72.529391 88.953208 100.520899 -7.126884 -0.175352 7.328299 -4.185630 -16.050430 -74.130079 -0.549742 2.081828 45.350227 1.669083 5.754214 -7.690180 0.533801 0.000000 -30.442100 11.752215 -4.832109 0.122095 5.336467 -9.113941 4.735055 1.691571 -0.246020 8.690470 -0.014197 0.219105 8.253782 -0.250000 0.000000 -89.506400 -5.860123 1.740834 -7.308775 -2.298458 1.992456 -5.090976 -6.130821 1.835745 -1.438336 8.790590 1.192304 -5.655846 -4.006115 -0.334232 0.423168 0.000000 0.000000 0.000000 -4.534678 7.542271 4.333960 -61.092918 20.772425 3.955232 -4.541733 -4.084549 -0.002652 4.556501 2.994670 0.123110 -0.099472 -0.036845 -0.000000 0.000000 0.000000 0.000000 0.000000 0.000000 0.000000 16.164943 9.059276 1.312390 69.208704 45.155856 29.212292 1.486482 55.108968 0.004899 0.395236 10.208069 0.038738 -0.004620 -0.455137 -0.000000 0.000000 0.000000 0.000000 0.000000 0.000000 0.000000 
-19.256767 15.653578 -0.565237 75.721568 88.868575 103.721094 -7.093404 -0.010380 7.281146 -4.734054 -16.058176 -73.284986 -0.543674 2.100646 45.640342 1.687076 5.900305 -7.618149 0.542600 -0.000000 -30.139700 11.946737 -4.861785 0.106521 5.046636 -9.293181 3.165245 1.315562 -0.619968 12.142704 -0.184831 -0.610746 11.546876 -0.441700 0.000000 -90.935199 -6.028944 1.683513 -7.304690 -2.353439 1.951213 -5.101099 -6.205513 1.792061 -1.502139 8.923092 1.240083 -5.609205 -4.066821 -0.338776 0.430535 0.000000 0.000000 0.000000 -4.335086 7.138830 4.344515 -61.053633 19.525379 3.912889 -4.506159 -3.375126 -0.002241 5.066202 2.727860 0.124227 -0.096655 -0.030650 -0.000000 0.000000 0.000000 0.000000 0.000000 0.000000 0.000000 16.536993 9.003817 1.313040 69.566435 44.027778 28.504325 1.478827 54.322497 0.001299 -0.289809 10.381094 -0.026535 0.004900 -0.455611 -0.000000 0.000000 0.000000 0.000000 0.000000 0.000000 0.000000 
-19.010205 15.705981 -0.574350 78.074410 88.744346 106.043074 -7.085026 0.145793 7.205317 -5.375230 -15.966064 -72.252360 -0.576011 2.108635 45.717980 1.687145 5.943092 -7.640513 0.530399 -0.000000 -29.871200 12.136092 -4.832870 0.074437 4.749292 -9.534035 1.391195 0.910673 -0.953094 15.904650 -0.402939 -1.444687 14.832169 -0.679800 0.000000 -90.743900 -6.201584 1.612267 -7.250739 -2.405841 1.897080 -5.100236 -6.274806 1.734819 -1.565223 9.039700 1.304853 -5.550123 -4.123553 -0.342965 0.441090 0.000000 0.000000 0.000000 -4.113139 6.718769 4.357287 -61.131495 18.191869 4.000546 -4.463306 -2.762642 -0.002067 5.530130 2.503375 0.124043 -0.093818 -0.024328 -0.000000 0.000000 0.000000 0.000000 0.000000 0.000000 0.000000 16.877686 8.938838 1.299151 70.002290 42.816370 27.785923 1.467078 53.387189 -0.002665 -1.035652 10.586621 -0.100119 0.014676 -0.454909 -0.000000 0.000000 0.000000 0.000000 0.000000 0.000000 0.000000 
